<svg xmlns="http://www.w3.org/2000/svg" width="64" height="64" fill="none" viewBox="0 0 64 64">
  <path fill="#111" d="M0 0h64v48L48 64H0V0z"/>
  <path fill="#fff" d="M47.58 4.42H16.42c-6.63 0-12 5.37-12 12v31.16c0 6.63 5.37 12 12 12h31.16c6.63 0 12-5.37 12-12V16.42c0-6.63-5.37-12-12-12zm5.25 47.27c0 1.1-.9 2-2 2H39.36c-.66 0-1.28-.33-1.65-.88l-11.1-16.26v15.14a2 2 0 0 1-2 2H13.17c-1.1 0-2-.9-2-2V12.31c0-1.1.9-2 2-2h11.36c.67 0 1.279.33 1.66.88L37.36 27.6V12.31c0-1.1.899-2 2-2h11.47c1.1 0 2 .9 2 2v39.38z"/>
</svg>
